<svg xmlns="http://www.w3.org/2000/svg" version="1.1" xmlns:xlink="http://www.w3.org/1999/xlink" width="512" height="512"><svg viewBox="0 0 4064 4096" width="512" height="512" role="img" aria-label="Barkday mark" version="1.1" id="SvgjsSvg1344" sodipodi:docname="barkday2-Master-Vector.svg" inkscape:export-filename="16.png" inkscape:export-xdpi="3" inkscape:export-ydpi="3" xmlns:inkscape="http://www.inkscape.org/namespaces/inkscape" xmlns:sodipodi="http://sodipodi.sourceforge.net/DTD/sodipodi-0.dtd" xmlns="http://www.w3.org/2000/svg" xmlns:svg="http://www.w3.org/2000/svg">
  <sodipodi:namedview id="SvgjsSodipodi:namedview1343" pagecolor="#ffffff" bordercolor="#000000" borderopacity="0.25" inkscape:showpageshadow="2" inkscape:pageopacity="0.0" inkscape:pagecheckerboard="0" inkscape:deskcolor="#d1d1d1" showgrid="false" inkscape:zoom="1.5292969" inkscape:cx="174.91698" inkscape:cy="253.05747" inkscape:window-width="1920" inkscape:window-height="991" inkscape:window-maximized="1" inkscape:current-layer="g71" inkscape:export-bgcolor="#000000ff"></sodipodi:namedview>
  <defs id="SvgjsDefs1342">
    <linearGradient id="SvgjsLinearGradient1341" x1="0" y1="0" x2="0" y2="1">
      <stop offset="0%" stop-color="#F9E27D" id="SvgjsStop1340"></stop>
      <stop offset="22%" stop-color="#F1D166" id="SvgjsStop1339"></stop>
      <stop offset="48%" stop-color="#D4AF37" id="SvgjsStop1338"></stop>
      <stop offset="70%" stop-color="#C49A27" id="SvgjsStop1337"></stop>
      <stop offset="100%" stop-color="#B18317" id="SvgjsStop1336"></stop>
    </linearGradient>
    <linearGradient id="SvgjsLinearGradient1335" x1="0" y1="0" x2="0" y2="1">
      <stop offset="0%" stop-color="#F1D166" id="SvgjsStop1334"></stop>
      <stop offset="50%" stop-color="#CFA22F" id="SvgjsStop1333"></stop>
      <stop offset="100%" stop-color="#9A7414" id="SvgjsStop1332"></stop>
    </linearGradient>
    <style id="SvgjsStyle1331">
.mark path, .mark rect, .mark circle, .mark polygon, .mark polyline, .mark g {
  fill: url(#gold);
  stroke: none;
}
.gold-stroke { fill: none; stroke: url(#goldStroke); stroke-linecap: round; stroke-linejoin: round; }
</style>
  </defs>
  <g id="SvgjsG1330" style="fill:none;fill-opacity:1;stroke:#f0f84f;stroke-opacity:1">
    <path style="fill:none;fill-opacity:1;stroke-width:2.27774;stroke-dasharray:none;stroke:#f0f84f;stroke-opacity:1" d="m 1966.3967,57.280507 c -26.8233,7.225061 -49.0432,22.527185 -67.455,46.455543 -20.161,26.1996 -28.3059,52.08281 -26.3261,83.6611 1.8735,29.87203 16.014,59.24234 41.0113,85.17075 14.1947,14.72584 15.8807,18.90901 10.6692,26.50018 -6.0838,8.86579 -89.598,172.32574 -89.598,175.36989 0,0.84748 -3.3447,7.48722 -7.433,14.75296 -4.0882,7.26574 -8.8612,16.77109 -10.6059,21.12149 -1.747,4.35041 -3.7515,8.41832 -4.4544,9.03981 -1.435,1.26557 -9.7652,18.54967 -19.5847,40.63616 -6.425,14.45465 -133.3687,270.81664 -144.9284,292.68392 -8.6036,16.27616 -15.0784,25.31822 -28.2606,39.47681 -14.1722,15.22303 -29.8585,37.32986 -34.6903,48.89403 -1.9639,4.69844 -4.1402,18.12028 -4.8408,29.82909 l -1.2678,21.28873 -8.1291,-1.43281 c -94.1879,-16.59256 -159.6293,-13.26365 -246.5538,12.54274 -62.6752,18.6084 -105.6527,45.5493 -142.0311,89.0307 -31.6122,37.7864 -46.0872,65.6313 -66.9329,128.7652 -16.6875,50.537 -51.9224,146.8674 -64.8922,177.4061 -8.1607,19.2186 -38.7311,80.7594 -48.8308,98.3079 -2.14695,3.7289 -8.38441,14.9156 -13.85801,24.8594 -9.80367,17.8039 -17.60502,31.8698 -25.06737,45.199 -2.08594,3.729 -14.27159,24.0685 -27.07647,45.199 -22.98369,37.9288 -45.92445,76.1265 -54.96877,91.528 -9.93926,16.9225 -34.05067,65.1973 -40.17514,80.4362 -24.74646,61.5746 -28.62227,142.691 -9.54377,199.7186 6.01599,17.9847 22.44583,50.2907 36.2383,71.2675 25.78152,39.2056 54.89646,57.4909 104.58599,65.6832 34.88004,5.7493 69.24714,3.747 124.17524,-7.2386 8.7573,-1.7515 8.9291,-4.1199 -1.9413,26.7104 -10.6805,30.2878 -14.4162,58.1191 -12.9902,96.771 1.4057,38.0915 5.0804,56.7994 17.9417,91.3472 20.152,54.1258 51.667,106.7962 84.7617,141.665 20.1746,21.2548 60.395,55.9293 84.1064,72.5083 28.1386,19.6751 85.1029,51.7641 112.9975,63.656 4.3504,1.8531 15.0287,6.416 23.7295,10.1381 22.5091,9.6274 65.3803,24.0007 81.6203,27.3635 19.0492,3.9436 20.604,5.1301 17.4988,13.3541 -1.3831,3.6656 -13.6433,23.2887 -27.2459,43.6057 -25.6121,38.2564 -30.0529,45.6939 -51.0591,85.5301 -27.1104,51.4093 -55.3055,126.8894 -61.6243,164.9764 -1.9617,11.8082 -4.9651,27.0629 -6.6782,33.8992 -9.5392,38.0802 -10.8003,46.8104 -10.5743,73.2495 0.2011,23.5555 1.1548,30.2766 6.9381,48.7878 10.0545,32.1817 12.1585,37.1717 26.5657,63.0007 10.615,19.0333 17.7654,28.342 35.8586,46.6838 25.6256,25.9804 38.8305,34.3083 80.5898,50.824 14.7982,5.8533 27.5579,11.2952 28.3534,12.0907 0.7955,0.7955 2.2215,37.2892 3.1662,81.0961 0.9446,43.8046 3.3515,105.0719 5.347,136.1462 3.2543,50.6681 4.9583,67.6493 12.4682,124.2972 1.1525,8.7009 3.6475,28.0234 5.5436,42.9391 4.4951,35.3886 18.97,114.5976 27.4584,150.2867 1.9323,8.1178 3.6453,26.3171 3.8306,40.6791 l 0.3345,25.9894 -11.4602,24.8595 c -19.4446,42.1797 -29.933,73.3467 -28.3556,84.2623 1.1481,7.9437 15.0038,15.4467 39.9604,21.6435 51.9337,12.8908 114.9886,18.4141 189.8359,16.6265 41.3367,-0.9876 52.1958,-1.9617 64.4086,-5.7765 8.0793,-2.5243 22.4842,-5.2431 32.0122,-6.0431 12.2037,-1.026 18.3734,-2.617 20.8819,-5.3877 4.0905,-4.5199 10.0093,-52.6501 21.7068,-176.5134 2.5244,-26.724 6.6036,-68.9285 9.0647,-93.788 2.4588,-24.8594 6.5086,-67.5725 8.9946,-94.9179 2.4882,-27.3454 5.1821,-52.1348 5.9889,-55.0863 1.3943,-5.1165 2.1108,-5.3018 15.2501,-3.9549 38.661,3.9685 68.3499,4.1515 88.9313,0.5514 11.4986,-2.0136 21.187,-3.6588 21.5306,-3.6588 0.3435,0 0.7209,7.8827 0.8407,17.5146 0.1785,14.5789 7.0171,92.954 10.9924,125.9922 3.5707,29.6845 10.3279,97.0604 12.3551,123.1673 4.6894,60.4605 16.8592,155.0801 20.5113,159.4802 4.5809,5.5188 42.9798,11.2817 111.5037,16.7372 56.4739,4.495 126.0985,1.6475 159.5638,-6.5245 10.5653,-2.5786 30.9048,-7.2047 45.199,-10.276 21.63,-4.6487 26.8799,-6.6126 31.3003,-11.702 5.8149,-6.6962 5.6431,-16.0434 -0.5604,-30.7308 -6.3663,-15.0716 -12.8998,-30.8348 -26.1635,-63.1408 -15.1756,-36.9615 -16.2535,-44.6611 -9.9777,-71.2178 2.0001,-8.468 4.4047,-20.9881 5.3403,-27.8245 0.9379,-6.8363 4.8363,-26.1589 8.6624,-42.9391 7.451,-32.663 9.9551,-47.8815 20.6469,-125.4272 11.7969,-85.5685 19.978,-204.5142 20.6718,-300.5734 0.1356,-18.6446 0.9085,-39.4926 1.7175,-46.329 l 1.4712,-12.4297 16.9497,-5.7697 c 20.9814,-7.1437 32.6291,-13.0783 53.8478,-27.4358 20.4458,-13.8354 22.9001,-15.858 37.1965,-30.6743 32.0484,-33.2054 54.6366,-74.4314 62.8244,-114.6563 4.3278,-21.2526 3.6995,-73.4778 -1.139,-94.9179 -2.2441,-9.9438 -5.4194,-24.69 -7.0556,-32.7693 -5.9143,-29.185 -10.059,-44.4736 -18.0773,-66.673 -4.4883,-12.4275 -9.9709,-27.6799 -12.1857,-33.8948 -18.1677,-51.0071 -47.9832,-113.8789 -71.272,-150.2867 -12.7213,-19.8875 -23.8696,-37.2485 -34.3445,-53.4908 -11.8873,-18.4321 -10.5359,-21.0107 13.9552,-26.6063 99.4853,-22.7329 217.5067,-90.4907 297.197,-170.6286 54.5259,-54.8309 91.0218,-126.5888 103.8696,-204.2339 8.2036,-49.5901 5.5821,-78.9537 -11.2771,-126.2137 -6.0002,-16.8186 -7.833,-24.4934 -5.8511,-24.4934 1.5888,0 12.6626,1.4667 24.6132,3.2611 92.5382,13.8919 146.7137,1.5164 189.3025,-43.2419 30.4641,-32.0167 46.8352,-61.1633 57.9925,-103.2435 5.6567,-21.343 6.0725,-26.1477 6.181,-71.471 0.1107,-46.0487 -0.2034,-49.7709 -6.0386,-71.1884 -19.092,-70.0901 -30.1342,-93.0535 -94.8637,-197.2575 -11.0263,-17.7542 -21.9418,-35.5513 -24.2537,-39.5492 -43.529,-75.2902 -48.4285,-83.9933 -75.1683,-133.5359 -17.0874,-31.6597 -27.0109,-53.7981 -43.6848,-97.4672 -2.8475,-7.4578 -8.9268,-23.2209 -13.51,-35.0292 -4.5832,-11.8082 -18.3892,-50.7381 -30.6833,-86.5109 -12.2919,-35.7727 -25.768,-72.4404 -29.9466,-81.487 -23.847,-51.6128 -67.7398,-99.5938 -116.6316,-127.4906 -11.4353,-6.5267 -21.8401,-11.8647 -23.1192,-11.8647 -1.2814,0 -5.5347,-1.3763 -9.4512,-3.0577 -28.2064,-12.1134 -93.9551,-27.77258 -129.1584,-30.75797 -68.6347,-5.8239 -89.0465,-5.13235 -138.6095,4.70069 -12.8433,2.54923 -23.9691,4.01593 -24.7216,3.26337 -0.7526,-0.75256 -2.5538,-12.5156 -4.0024,-26.13858 -3.4758,-32.67889 -10.0296,-46.10073 -36.7242,-75.18629 -13.0489,-14.21961 -22.6085,-27.12167 -27.5149,-37.14003 -26.6199,-54.33599 -51.85,-107.46742 -56.9281,-119.87229 -1.6543,-4.04079 -3.6114,-7.34484 -4.3527,-7.34484 -0.7413,0 -2.6893,-4.06791 -4.3301,-9.0398 -1.6407,-4.97189 -3.8374,-9.0398 -4.8815,-9.0398 -1.044,0 -1.8983,-1.20455 -1.8983,-2.67578 0,-1.47349 -1.982,-6.81149 -4.4024,-11.86474 -2.4227,-5.05325 -5.4713,-11.7314 -6.7753,-14.83884 -1.304,-3.10743 -3.3922,-7.17534 -4.6374,-9.0398 -1.2475,-1.86446 -3.2996,-5.93237 -4.5629,-9.0398 -1.261,-3.10743 -9.2002,-18.87059 -17.6434,-35.02923 -38.1276,-72.98736 -100.2605,-196.01906 -107.2844,-212.43534 -9.3765,-21.92152 -28.0821,-61.99496 -31.1195,-66.66853 -1.2113,-1.86446 -3.8103,-6.94935 -5.7764,-11.29976 -1.9662,-4.3504 -6.0996,-13.4693 -9.1867,-20.26271 -3.0871,-6.79341 -7.0782,-16.67166 -8.8726,-21.95316 l -3.2588,-9.60253 12.5608,-15.33602 c 24.9656,-30.47769 38.9999,-69.45054 36.4439,-101.21188 -3.2204,-40.0531 -27.6731,-79.062106 -61.7961,-98.585818 -25.2594,-14.452383 -66.5781,-19.702247 -94.9405,-12.063615" id="SvgjsPath1329"></path>
    <path style="fill:#000000;fill-opacity:1;stroke-width:29.48031496;stroke-dasharray:none;stroke:#f0f84f;stroke-opacity:1" d="m 2446.2726,3300.786 c -1.8057,23.5758 -3.3696,56.2456 -5.9188,123.7323 -2.6509,70.1895 -6.1425,129.6511 -9.0895,154.8066 -10.276,87.7245 -19.2932,145.934 -31.5037,203.3955 -4.8883,22.995 -10.6512,51.5766 -12.8071,63.5136 l -3.9233,21.7046 5.0736,8.6014 c 2.7933,4.7301 8.6737,17.8446 13.0693,29.1443 4.3956,11.2975 12.4704,31.8834 17.9417,45.7414 5.4736,13.8603 9.9506,26.742 9.9506,28.6268 0,3.6566 -4.3391,4.8476 -44.0691,12.1043 -31.8698,5.8216 -147.9747,5.8691 -203.3955,0.084 -21.1305,-2.2057 -40.4689,-4.4476 -42.9775,-4.9787 -5.4871,-1.1638 -11.3924,-19.4762 -13.4851,-41.8249 -0.7593,-8.0793 -2.33,-22.317 -3.4939,-31.6393 -2.0023,-16.0343 -9.6093,-110.6969 -12.4388,-154.8066 -0.7186,-11.1867 -2.7277,-29.4923 -4.4679,-40.6791 -1.7401,-11.1867 -4.2668,-36.1027 -5.6137,-55.3688 -1.3492,-19.266 -2.9244,-39.6056 -3.5052,-45.199 -0.5785,-5.5934 -1.4983,-16.023 -2.043,-23.1758 -0.5446,-7.155 -1.5254,-13.8715 -2.1763,-14.9269 -1.5526,-2.5108 6.3188,-9.4195 19.013,-16.6898 14.5992,-8.3595 23.404,-18.2107 21.5373,-24.0933 -2.1266,-6.6962 -8.9585,-6.1041 -38.0621,3.3063 -37.2621,12.0455 -83.2905,19.1395 -108.9025,16.7824 -28.3172,-2.6057 -50.9732,-7.4895 -73.4484,-15.8264 -10.5652,-3.9211 -22.0232,-8.163 -25.4651,-9.4263 -13.8693,-5.0962 -22.995,3.4261 -16.6762,15.5733 5.0375,9.6794 12.7077,15.5462 25.9623,19.8537 11.7088,3.8057 12.032,4.1357 10.8116,11.0172 -1.9367,10.9427 -3.5458,27.6302 -8.2036,85.0646 -4.034,49.7302 -8.9449,100.1361 -11.2274,115.2575 -1.2204,8.0793 -3.7786,34.0122 -5.686,57.6287 -8.4251,104.3148 -13.2953,145.1001 -17.8763,149.6833 -0.7706,0.7706 -12.8342,2.1718 -26.8052,3.1119 -13.971,0.9424 -40.148,2.8318 -58.1711,4.199 -40.2136,3.0532 -115.0157,3.1346 -137.8887,0.1492 -37.1151,-4.8431 -63.6063,-11.0986 -67.8844,-16.0321 -4.7345,-5.4578 -4.8182,-5.1324 9.0308,-34.6518 5.1843,-11.0534 13.571,-30.8845 18.6333,-44.0691 8.5969,-22.3825 9.2025,-25.4696 9.1279,-46.5708 -0.063,-17.6457 -2.1153,-32.1658 -9.3584,-66.2436 -8.7438,-41.1334 -22.9363,-122.1368 -26.2087,-149.5816 -0.8158,-6.8364 -3.4373,-26.4663 -5.8284,-43.6238 -6.8341,-49.0771 -12.2918,-138.8311 -14.7823,-243.1458 l -1.53,-64.1646 11.8873,1.1413 c 6.5381,0.6283 12.6558,2.3865 13.5936,3.9052 0.9402,1.5187 1.8894,10.0477 2.1108,18.952 1.347,53.8049 15.7451,89.2657 42.1052,103.6955 6.1742,3.3809 18.8525,7.9573 28.1748,10.1698 15.849,3.7628 38.2835,4.025 345.7724,4.025 347.5148,0 355.6552,-0.2238 375.3755,-10.2828 9.9573,-5.0804 23.0854,-19.7701 30.1974,-33.7863 6.7121,-13.2297 11.0218,-28.8528 17.144,-62.1486 2.7436,-14.9157 5.7765,-28.5952 6.7392,-30.4009 0.965,-1.8034 6.1764,-4.4679 11.58,-5.9188 5.4035,-1.4509 10.1833,-2.7729 10.624,-2.9334 0.4407,-0.1627 0.1966,7.5844 -0.5424,17.2186" id="SvgjsPath1328"></path>
    <path style="fill:#000000;fill-opacity:1;stroke-width:26.45669288;stroke-dasharray:none;stroke:#f0f84f;stroke-opacity:1" d="m 2191.7703,2985.5387 c 0,2.8046 -3.6566,19.3316 -8.1268,36.7242 l -8.129,31.6235 1.2158,40.6791 c 1.817,60.7158 9.1483,91.0624 31.4359,130.0986 14.5699,25.5193 31.6529,42.2339 52.5326,51.4003 36.9773,16.2332 80.1717,24.7397 112.8641,22.2266 14.8163,-1.139 19.3317,-0.8226 19.2978,1.3514 -0.025,1.5617 -1.5006,15.1259 -3.2792,30.1433 -3.8103,32.1613 -9.598,49.2307 -20.1723,59.4796 -6.7935,6.5832 -9.7585,7.6861 -25.4313,9.4556 -22.8051,2.5764 -225.0097,2.3029 -229.2358,-0.3096 -3.356,-2.0724 -3.4916,-14.6738 -2.8159,-260.9067 0.1311,-48.476 0.1,-102.6651 -0.072,-120.4192 -0.2554,-26.4731 0.2983,-32.6676 3.0781,-34.4304 1.8644,-1.1819 19.9169,-2.1627 40.1141,-2.1831 36.6225,-0.034 36.7242,-0.023 36.7242,5.0668" id="SvgjsPath1327"></path>
    <path style="fill:#000000;fill-opacity:1;stroke-width:26.45669288;stroke-dasharray:none;stroke:#f0f84f;stroke-opacity:1" d="m 1883.8633,3190.7377 -0.5763,208.9211 -96.0478,0.2373 c -132.3382,0.33 -149.7105,-1.2068 -160.504,-14.1834 -10.0251,-12.0546 -16.8615,-35.9468 -19.196,-67.098 l -1.6565,-22.0978 21.1847,1.5142 c 25.1623,1.7989 51.7529,-1.4464 77.5141,-9.4602 65.8165,-20.4683 105.23,-75.4981 114.2088,-159.453 4.9584,-46.3471 2.5131,-85.3561 -7.946,-126.7877 -2.9921,-11.858 -3.2724,-16.0118 -1.2113,-18.0797 2.7571,-2.7639 69.7579,-6.1448 73.1004,-3.6882 0.9401,0.6916 1.4486,95.2705 1.1299,210.1754" id="SvgjsPath1326"></path>
    <path style="fill:#000000;fill-opacity:1;stroke-width:26.45669288;stroke-dasharray:none;stroke:#f0f84f;stroke-opacity:1" d="m 1960.4033,2863.9715 c 10.7506,10.7528 20.6063,14.7348 36.5028,14.7552 12.2398,0.023 32.5184,-7.0488 42.8486,-14.927 6.694,-5.1075 9.9935,-6.0115 20.6627,-5.6634 7.6251,0.2508 14.014,1.7334 15.996,3.7153 2.8475,2.8476 3.3357,35.7411 3.5662,240.0452 0.1469,130.2093 -0.3187,250.4725 -1.0351,267.2527 l -1.3017,30.5093 -80.1921,-0.3525 -80.1921,-0.3549 -0.8181,-265.2978 c -0.7706,-249.9166 -0.5898,-265.4899 3.1142,-268.5815 4.7776,-3.9843 20.9339,-10.6354 26.6245,-10.9563 2.2735,-0.1288 8.6737,4.3052 14.2241,9.8557" id="SvgjsPath1325"></path>
    <path style="fill:#000000;fill-opacity:1;stroke-width:26.45669288;stroke-dasharray:none;stroke:#f0f84f;stroke-opacity:1" d="m 2386.7678,2797.2125 c 6.7189,7.9867 9.98,24.8866 11.806,61.1882 0.7187,14.2942 1.8848,29.2957 2.5899,33.3343 1.5368,8.7912 0.1921,8.9878 -27.4674,3.9888 -24.7578,-4.4725 -45.7889,-4.1696 -71.1885,1.0305 -28.8075,5.894 -66.1261,24.2515 -86.138,42.3696 l -14.4297,13.0647 -43.6035,-0.287 c -23.9804,-0.1582 -44.2069,-0.8927 -44.9459,-1.6317 -0.7413,-0.739 -1.8554,-18.1315 -2.4769,-38.6474 -1.3131,-43.2645 -2.0724,-41.8904 20.1881,-36.5253 38.4056,9.2545 84.999,12.7032 108.5206,8.0319 6.6194,-1.3131 16.8863,-3.3357 22.8164,-4.4906 15.1598,-2.9514 54.7405,-22.213 68.9873,-33.567 6.5832,-5.2476 16.5089,-15.8355 22.0571,-23.5306 14.3575,-19.9034 23.5532,-30.9387 25.7905,-30.9387 1.0622,0 4.4341,2.9741 7.494,6.6103" id="SvgjsPath1324"></path>
    <path style="fill:#000000;fill-opacity:1;stroke-width:29.48031496;stroke-dasharray:none;stroke:#f0f84f;stroke-opacity:1" d="m 1627.2618,2796.817 c 3.0893,4.6623 9.2454,14.0682 13.684,20.9046 22.891,35.2665 67.2742,59.7734 116.914,64.5555 29.289,2.8226 47.5358,2.2079 86.8296,-2.9222 19.7903,-2.5831 37.1513,-4.2464 38.5841,-3.6972 3.5639,1.3672 1.8012,68.6889 -1.8939,72.3184 -1.661,1.6317 -18.4931,3.0622 -46.2431,3.9278 -49.5358,1.548 -44.4261,3.1549 -62.639,-19.6797 -11.6523,-14.6083 -36.5841,-27.2053 -66.2211,-33.4585 -27.2595,-5.7516 -74.6823,-6.0612 -93.0399,-0.6102 -8.1358,2.4159 -12.6082,2.7933 -14.1992,1.2023 -3.5256,-3.5256 2.113,-79.5706 6.7798,-91.4399 4.5086,-11.4602 9.9348,-19.4084 13.3134,-19.5056 1.3853,-0.038 5.0442,3.7447 8.1313,8.4047" id="SvgjsPath1323"></path>
    <path style="fill:#000000;fill-opacity:1;stroke-width:26.45669288;stroke-dasharray:none;stroke:#f0f84f;stroke-opacity:1" d="m 2466.7068,2665.7399 c 3.7176,4.6623 12.2399,17.1191 18.9361,27.6844 6.6963,10.5653 12.7484,19.7181 13.4467,20.3396 3.1481,2.8023 10.9178,15.8287 24.5951,41.2305 4.1877,7.7765 8.8499,15.6637 10.3618,17.5282 5.0533,6.2329 26.5047,48.9234 38.609,76.8383 24.0821,55.5315 33.4631,87.2296 49.8297,168.3663 6.7685,33.5625 3.1187,75.4191 -9.2523,106.1069 -13.9416,34.5818 -23.0537,47.9901 -49.5335,72.8879 -16.5994,15.605 -23.7589,20.3938 -49.6173,33.1829 -16.6196,8.2217 -30.8618,14.9473 -31.6528,14.9473 -0.7887,0 -5.7448,1.9255 -11.015,4.2781 -8.7709,3.9165 -28.0754,8.4567 -60.4288,14.2151 -6.8364,1.2181 -25.6505,1.7175 -41.8091,1.1141 -33.3185,-1.2475 -71.9116,-9.7991 -95.0694,-21.0672 -19.6706,-9.5732 -36.6722,-27.542 -47.8047,-50.519 -14.4388,-29.8042 -18.9112,-50.9799 -20.3486,-96.3349 -1.8147,-57.3485 2.0249,-77.6925 22.7012,-120.2384 8.8681,-18.2491 24.5905,-32.7308 47.9991,-44.2114 17.1485,-8.4115 19.1463,-8.8499 45.086,-9.8895 15.9937,-0.6418 35.488,0.086 47.459,1.7695 11.1754,1.5707 24.8617,3.2679 30.4144,3.7674 5.555,0.5017 15.7247,3.3379 22.5995,6.3007 6.877,2.9651 16.4863,6.0499 21.3543,6.859 4.8679,0.809 16.3349,4.443 25.4832,8.077 18.3621,7.2929 33.9376,8.6828 36.0371,3.2114 4.703,-12.2557 -8.5042,-22.2085 -42.1232,-31.7478 -11.8082,-3.3515 -23.1667,-6.9764 -25.2436,-8.0567 -6.7211,-3.5007 -9.2093,-15.9778 -13.1123,-65.7307 -3.3944,-43.2757 -11.3155,-63.4164 -30.8076,-78.3457 -11.693,-8.9561 -12.0501,-11.528 -5.4307,-39.1423 2.4769,-10.3325 4.5109,-24.6674 4.5199,-31.854 0.023,-15.8287 4.8544,-28.742 10.7619,-28.742 2.3074,0 12.2761,-2.4747 22.1498,-5.5008 26.3917,-8.0861 32.6472,-7.677 40.9051,2.6758" id="SvgjsPath1322"></path>
    <path style="fill:#000000;fill-opacity:1;stroke-width:26.45669288;stroke-dasharray:none;stroke:#f0f84f;stroke-opacity:1" d="m 1564.634,2663.1229 c 9.9438,1.8306 21.6006,4.0928 25.9013,5.0239 l 7.8217,1.6972 2.7911,19.135 c 1.5345,10.5246 4.4747,30.1839 6.5357,43.6871 l 3.7448,24.5544 -11.2749,11.6048 c -12.9993,13.3857 -13.8151,14.8027 -21.7294,37.7977 -4.6804,13.6003 -6.398,24.5973 -8.2963,53.1088 -1.3176,19.7768 -1.8102,39.0745 -1.0961,42.8826 1.2656,6.7459 0.9627,7.0307 -11.693,11.0195 -10.9404,3.4487 -47.7686,19.4875 -59.3734,25.8561 -4.4205,2.4249 -5.6115,10.9201 -2.1198,15.1258 3.5571,4.2871 13.8806,2.4295 34.8891,-6.2781 20.3531,-8.4364 36.9931,-13.6637 67.7985,-21.2933 21.5667,-5.3425 29.1986,-6.1357 57.6287,-5.9956 52.1167,0.2599 81.4057,10.2375 101.1328,34.4529 16.3372,20.0548 25.8471,46.5708 32.7829,91.4105 3.7605,24.3035 -1.0826,102.3735 -7.5257,121.3141 -13.5122,39.7254 -32.2246,66.6979 -53.8636,77.6406 -11.58,5.8533 -46.7042,15.6389 -65.7465,18.3147 -21.3362,2.9989 -69.0777,1.7175 -86.651,-2.3255 -71.7557,-16.5067 -106.0663,-31.9512 -137.9203,-62.0831 -19.2163,-18.1745 -32.1862,-35.9717 -44.6182,-61.2153 -16.3327,-33.1648 -20.2243,-49.4477 -20.2333,-84.6713 0,-28.4302 0.4294,-31.1082 13.4941,-82.8656 18.1248,-71.8099 32.758,-114.2247 54.336,-157.5118 4.7301,-9.4918 10.4817,-21.3249 12.78,-26.2967 7.6251,-16.4977 37.2576,-67.5274 49.8681,-85.8782 6.8341,-9.9437 16.1541,-23.9374 20.7102,-31.0991 7.668,-12.0478 8.7935,-12.9224 15.0671,-11.7292 3.7289,0.7074 14.9157,2.7865 24.8594,4.6171" id="SvgjsPath1321"></path>
    <path style="fill:#000000;fill-opacity:1;stroke-width:23.43307088;stroke-dasharray:none;stroke:#f0f84f;stroke-opacity:1" d="m 2015.0309,2640.2725 c 12.8952,10.8501 30.1929,46.2725 33.1308,67.8415 2.6622,19.5531 3.0442,38.5615 1.1097,55.0569 -3.2883,28.0143 -4.2194,32.471 -7.9777,38.2067 -1.9661,3.0012 -4.043,8.0409 -4.6148,11.2026 -1.5458,8.52 -13.2682,24.4097 -21.9848,29.7974 -14.1653,8.7551 -25.1306,4.9539 -45.8047,-15.8784 -7.3584,-7.4149 -19.4581,-34.2201 -23.3452,-51.7167 -3.2905,-14.814 -2.8544,-43.5334 0.9921,-65.3849 5.5617,-31.6031 27.8652,-71.0754 41.3186,-73.1184 15.2027,-2.3074 20.6357,-1.5096 27.176,3.9933" id="SvgjsPath1320"></path>
    <path style="fill:#000000;fill-opacity:1;stroke-width:29.48031496;stroke-dasharray:none;stroke:#f0f84f;stroke-opacity:1" d="m 2318.4541,2534.8888 c 19.1937,9.5731 33.1444,32.3986 42.6113,69.724 6.0386,23.8086 6.8318,32.0619 7.1166,74.1218 0.3051,45.1132 -2.999,62.4605 -17.4355,91.528 -16.8253,33.8744 -32.428,52.5416 -52.6704,63.0142 -23.9894,12.4094 -46.8646,18.7666 -72.0992,20.039 -25.7974,1.2995 -71.9365,-2.4882 -89.5754,-7.3561 -6.2149,-1.7131 -18.4186,-5.103 -27.1194,-7.5325 -8.7008,-2.4271 -19.8876,-5.1165 -24.8595,-5.9707 -15.7631,-2.7142 -20.0954,-9.7811 -13.6139,-22.2063 5.2453,-10.0591 12.4772,-52.8693 12.4794,-73.8868 0,-21.9916 -4.6668,-47.981 -11.5709,-64.4086 -2.6125,-6.2149 -6.1606,-14.64 -7.8872,-18.7214 -3.8962,-9.2184 -4.025,-18.8684 -0.3119,-23.4493 1.5548,-1.9164 6.8928,-6.4183 11.8647,-10.0048 4.9719,-3.5843 15.6502,-11.7133 23.7295,-18.0615 8.0793,-6.3505 16.2152,-12.0885 18.0796,-12.7552 1.8645,-0.6667 14.1179,-8.7302 27.2302,-17.9214 27.6437,-19.3745 43.9763,-27.2233 70.2663,-33.7682 27.3748,-6.8137 42.9843,-8.5923 69.8664,-7.9572 19.3452,0.4565 25.7544,1.5119 33.8993,5.573" id="SvgjsPath1319"></path>
    <path style="fill:#000000;fill-opacity:1;stroke-width:23.43307088;stroke-dasharray:none;stroke:#f0f84f;stroke-opacity:1" d="m 1754.1806,2530.4254 c 11.0263,1.4599 25.264,4.7617 31.6393,7.3358 24.1408,9.7562 29.2731,12.0772 31.6958,14.3439 1.3695,1.2836 12.154,7.2296 23.9623,13.2139 11.8082,5.9844 24.5204,14.2332 28.2493,18.3282 5.7787,6.3482 14.2197,12.0501 37.1333,25.0877 2.2419,1.2769 9.5505,6.4635 16.24,11.5303 6.6917,5.0668 13.9439,9.8398 16.1202,10.6059 6.016,2.1199 4.9561,6.4228 -7.772,31.5196 -6.4499,12.719 -12.0364,25.6662 -12.4161,28.7737 -0.3797,3.1074 -1.7379,11.3675 -3.0193,18.3575 -5.1143,27.8765 -2.1989,63.369 8.0364,97.8762 4.9854,16.8073 4.4159,21.2955 -2.9086,22.8911 -7.0736,1.5413 -21.6774,5.4916 -44.634,12.0794 -20.8706,5.9866 -54.632,11.4647 -75.7739,12.2941 -19.3497,0.7594 -58.8333,-3.7357 -75.6428,-8.6126 -30.1681,-8.7528 -61.4119,-36.1479 -73.5523,-64.4877 -1.3311,-3.1075 -5.0849,-11.2433 -8.3392,-18.0796 -8.1223,-17.0514 -16.9293,-60.9057 -15.2073,-75.7084 0.4362,-3.7289 1.3086,-13.015 1.9391,-20.6356 4.2668,-51.4636 7.9573,-79.5457 10.6715,-81.2226 1.1006,-0.6802 2,-3.0826 2,-5.338 0,-9.476 19.2864,-35.9558 32.1456,-44.1368 15.4919,-9.8557 37.7072,-11.5371 79.4327,-6.016" id="SvgjsPath1318"></path>
    <path style="fill:#000000;fill-opacity:1;stroke-width:26.45669288;stroke-dasharray:none;stroke:#f0f84f;stroke-opacity:1" d="m 2622.7021,1014.0825 c 38.6384,8.0206 60.7339,15.4354 94.1405,31.5918 58.2299,28.1613 99.1373,69.0393 123.5538,123.4611 5.6114,12.5043 24.1973,66.7816 37.9039,110.6901 1.939,6.2149 4.7594,14.3507 6.2645,18.0796 1.5052,3.729 4.0069,10.8478 5.5595,15.8197 6.8432,21.9147 42.2249,108.3488 54.1123,132.1958 32.6382,65.4685 57.8434,109.8923 85.6815,151.0076 16.0614,23.7227 33.0789,50.9596 44.3628,71.0122 1.243,2.2079 9.9845,16.9767 19.4243,32.8167 31.0811,52.1484 49.1381,93.5213 59.9135,137.2762 4.66,18.9225 5.5618,28.0482 5.5324,56.0807 -0.068,66.3272 -12.6309,109.5827 -44.1029,151.8438 -29.2709,39.3028 -69.663,55.3597 -139.2605,55.3597 -37.775,0 -78.9649,-7.5663 -93.6772,-17.205 -6.5154,-4.2713 -24.3916,-42.6272 -30.1567,-64.7046 -5.3697,-20.5724 -9.7404,-50.0173 -16.1903,-109.0562 -2.5786,-23.6165 -6.59,-57.1767 -8.911,-74.5784 -2.3232,-17.4016 -4.7436,-35.7072 -5.3832,-40.6791 -0.6373,-4.9719 -3.8397,-23.2775 -7.1143,-40.6791 -3.2747,-17.4016 -6.8002,-37.2327 -7.833,-44.069 -1.0306,-6.8364 -3.4397,-18.0231 -5.3516,-24.8595 -3.1368,-11.2184 -6.1199,-28.5025 -6.7324,-38.9841 -0.1265,-2.1763 -0.8633,-3.9549 -1.6362,-3.9549 -0.7729,0 -3.2204,-8.3912 -5.4374,-18.6446 -2.2193,-10.2534 -5.3448,-21.6955 -6.9471,-25.4245 -1.6023,-3.7289 -4.1154,-11.2997 -5.5821,-16.8253 -8.8838,-33.4382 -37.3999,-114.6495 -49.6398,-141.3712 -4.5538,-9.9438 -9.6974,-21.639 -11.4286,-25.9894 -5.7651,-14.4886 -40.4531,-82.1967 -53.0636,-103.5781 -15.4196,-26.1408 -33.5693,-53.3687 -42.1119,-63.1724 -3.5594,-4.0814 -6.4974,-8.1493 -6.5313,-9.0398 -0.034,-0.8881 -4.6012,-6.7007 -10.1494,-12.9156 -5.5482,-6.2148 -10.0975,-12.3642 -10.1088,-13.6682 -0.025,-3.0057 -37.4112,-45.5899 -63.3961,-72.2099 -10.9201,-11.1867 -22.2289,-23.0605 -25.1329,-26.3872 -2.904,-3.3266 -13.8829,-11.7879 -24.3984,-18.8028 -10.5156,-7.0171 -23.7973,-17.0151 -29.5172,-22.2198 -5.72,-5.2047 -17.0581,-13.3586 -25.1962,-18.118 -12.0049,-7.0194 -15.266,-10.1788 -17.2796,-16.7395 -1.365,-4.4475 -1.9481,-8.9516 -1.295,-10.007 1.2837,-2.0769 13.6999,-7.7562 24.6086,-11.2568 30.3241,-9.7314 149.4845,-11.0286 192.5071,-2.095" id="SvgjsPath1317"></path>
    <path style="fill:#000000;fill-opacity:1;stroke-width:26.45669288;stroke-dasharray:none;stroke:#f0f84f;stroke-opacity:1" d="m 1530.7348,1012.0056 c 35.0337,5.1482 48.2431,7.4601 50.0692,8.7686 6.3595,4.5493 13.8173,16.4841 12.78,20.448 -0.6418,2.4543 -9.9596,10.3483 -20.7079,17.544 -21.0266,14.0773 -53.1654,37.7706 -59.0209,43.5131 -1.9797,1.9413 -10.0658,9.1234 -17.9711,15.9598 -19.0017,16.4366 -90.8636,92.7054 -102.2108,108.4776 -36.4101,50.6138 -40.9074,57.57 -64.8041,100.2333 -8.9358,15.953 -32.0393,61.4051 -32.0393,63.0323 0,0.8475 -12.0365,29.802 -26.7488,64.3408 -14.7122,34.5388 -28.5567,69.4076 -30.7647,77.4869 -2.2102,8.0793 -10.4138,35.5377 -18.231,61.0187 -7.8172,25.4809 -14.9066,49.8884 -15.7541,54.2388 -3.6611,18.8186 -10.4274,45.1922 -13.4422,52.4105 -1.7966,4.2984 -3.8283,15.7812 -4.5154,25.5148 -1.1864,16.848 -2.8565,25.4719 -12.4839,64.4516 -2.3029,9.3222 -4.7685,25.0854 -5.4827,35.0292 -2.3933,33.3907 -8.2036,90.2963 -10.3844,101.6977 -1.1888,6.2149 -2.7052,19.4356 -3.3719,29.3794 -3.2204,48.155 -8.2443,71.5568 -21.3407,99.4378 -14.2942,30.428 -23.9238,36.1637 -72.3094,43.086 -42.2543,6.0431 -85.48937,3.6159 -114.33312,-6.4228 -46.06683,-16.0298 -88.20812,-65.4572 -102.82548,-120.6 -5.30637,-20.0254 -9.66355,-71.8393 -7.76293,-92.3393 2.63962,-28.4867 12.72126,-65.5115 27.38382,-100.5678 11.87829,-28.3985 41.565,-83.7741 59.84574,-111.6257 7.25444,-11.0534 13.18907,-20.5 13.18907,-20.9927 0,-0.4927 7.53468,-12.4004 16.74171,-26.464 74.63709,-113.9897 140.17569,-253.6071 180.98809,-385.5656 17.6073,-56.9305 40.6746,-101.804 67.8279,-131.9427 1.252,-1.3876 5.1301,-5.9866 8.6217,-10.2173 8.572,-10.3867 30.9817,-28.0776 49.5608,-39.1242 16.4637,-9.7879 59.9949,-25.2233 81.9209,-29.0494 7.4578,-1.2995 18.1361,-3.4442 23.7295,-4.7663 23.508,-5.5481 31.9602,-6.7504 59.8887,-8.5245 32.1297,-2.0385 82.6057,-1.0034 103.9577,2.1334" id="SvgjsPath1316"></path>
    <path style="fill:#000000;fill-opacity:1;stroke:#f0f84f;stroke-opacity:1;stroke-width:29.48031496;stroke-dasharray:none" d="m 2060.8197,970.28917 c 0.8317,0.51527 15.9191,1.43055 33.5286,2.03169 17.6096,0.60341 32.9004,1.64299 33.9806,2.30967 1.078,0.66669 9.9461,2.31419 19.7068,3.66112 38.0553,5.24761 109.4585,25.89905 144.3024,41.73225 6.2148,2.8249 21.865,9.8104 34.7783,15.5259 34.8146,15.4083 96.1338,51.563 112.1478,66.1238 2.5018,2.2736 12.6716,10.2376 22.5995,17.6955 27.316,20.5203 90.0026,83.3062 111.906,112.0822 34.3309,45.1041 49.5245,66.8697 61.3915,87.9414 3.1459,5.5844 9.3969,16.3915 13.8942,24.0165 7.6296,12.936 32.9908,64.3476 52.2501,105.9126 27.2166,58.7474 72.8495,201.8633 82.504,258.7643 1.1593,6.8364 4.6284,24.6335 7.7087,39.5492 9.155,44.3402 17.2457,101.1486 23.978,168.3663 6.6014,65.9159 12.1337,97.0174 21.8605,122.8599 9.9958,26.5635 20.3193,50.9077 34.8236,82.1334 17.77,38.2519 23.5464,64.8967 23.4086,108.0098 -0.1062,33.7433 -4.6397,61.3667 -15.5688,94.8456 -23.9148,73.2653 -87.4262,151.4325 -159.7514,196.6202 -7.8985,4.9357 -21.4786,13.4535 -30.1794,18.9294 -13.6139,8.5697 -60.2299,31.9873 -63.6763,31.9873 -0.6486,0 -4.3843,1.4283 -8.3008,3.173 -30.1658,13.4376 -66.2166,27.6166 -79.4395,31.2483 -26.5432,7.2861 -49.2557,13.18 -58.7587,15.2501 -4.9719,1.0826 -13.6163,3.4894 -19.2096,5.3493 -10.2625,3.4103 -61.4594,17.2977 -63.7713,17.2977 -0.6848,0 -2.4272,-8.0658 -3.869,-17.9237 -8.007,-54.7721 -31.4744,-100.3779 -58.7655,-114.2066 -32.8281,-16.6355 -72.4269,-17.2004 -124.4487,-1.7785 -20.0571,5.9459 -86.0928,37.4903 -98.9746,47.2781 -4.0972,3.112 -12.8523,8.8771 -19.4559,12.8094 -12.9065,7.6861 -41.3593,26.0979 -51.841,33.5445 -6.9425,4.9312 -10.1517,4.721 -26.9973,-1.7831 l -10.8252,-4.1809 -16.6897,6.0046 c -9.6771,3.4804 -18.9,5.4556 -21.9464,4.7007 -2.8905,-0.7164 -10.9382,-5.4713 -17.8853,-10.5675 -21.9644,-16.1112 -34.3467,-25.0131 -38.0327,-27.3454 -1.9661,-1.243 -8.1516,-5.3425 -13.745,-9.1098 -5.5934,-3.7651 -13.2207,-8.3212 -16.9496,-10.1224 -3.7289,-1.8011 -10.2602,-5.8374 -14.5134,-8.972 -4.2532,-3.1323 -7.9031,-5.1866 -8.111,-4.5651 -0.3774,1.1323 -12.9111,-4.26 -48.4058,-20.8299 -13.1869,-6.1561 -25.3657,-9.8805 -39.5492,-12.0953 -11.2749,-1.7605 -24.5656,-4.2012 -29.5375,-5.4239 -4.9719,-1.2226 -13.0422,-2.2464 -17.935,-2.2757 -11.467,-0.07 -40.8938,8.1041 -50.6975,14.084 -11.3743,6.9358 -31.6732,25.2775 -38.6858,34.9569 -9.9867,13.7834 -20.0209,43.2893 -23.7453,69.8257 -1.869,13.3133 -3.7493,24.5543 -4.1786,24.9837 -0.4294,0.4294 -14.414,-2.6871 -31.0766,-6.929 -16.6626,-4.2396 -36.3988,-8.9426 -43.8566,-10.4477 -18.5746,-3.7515 -99.257,-29.3816 -117.5174,-37.3299 -109.0155,-47.4522 -149.1116,-72.0156 -201.2599,-123.2961 -11.2568,-11.0692 -23.282,-23.9419 -26.7217,-28.6065 -29.1692,-39.5446 -36.4304,-51.9088 -58.0852,-98.8818 -3.573,-7.7517 -10.6557,-30.9885 -14.1225,-46.329 -7.1821,-31.7727 -8.5087,-67.8437 -3.817,-103.7476 3.1684,-24.2357 7.9211,-36.41 36.6948,-93.9981 10.5585,-21.1305 21.3407,-45.0295 23.9577,-53.1088 6.7912,-20.9565 13.4626,-58.431 15.0852,-84.7481 3.8148,-61.8119 14.5112,-143.5973 25.7182,-196.6157 2.6284,-12.4298 7.8941,-38.3627 11.7043,-57.6288 3.8103,-19.266 9.3042,-44.6905 12.2105,-56.4987 12.8795,-52.3292 42.2204,-144.3837 54.6705,-171.5257 3.1933,-6.9629 10.3189,-22.6832 15.8332,-34.9344 29.8992,-66.4199 73.5026,-141.6062 107.6573,-185.6413 4.8204,-6.2149 14.423,-18.9271 21.3407,-28.2494 6.9177,-9.3223 29.4607,-33.7411 50.094,-54.2614 39.7842,-39.5695 80.4611,-72.1534 114.4326,-91.6681 10.6602,-6.1267 27.7183,-16.3282 37.9039,-22.6696 25.2233,-15.7112 41.2554,-23.1735 89.9008,-41.8475 27.9511,-10.728 47.9223,-16.96317 60.8244,-18.9813 10.5652,-1.65429 29.3793,-5.67022 41.809,-8.92229 27.1714,-7.10754 70.0359,-12.32803 103.9578,-12.65798 13.6727,-0.13334 29.9443,-1.08252 36.1592,-2.10853 10.7777,-1.78085 93.0105,-0.74579 96.1744,1.20907" id="SvgjsPath1315"></path>
    <path style="fill:#000100;fill-opacity:1;stroke-width:23.43307088;stroke-dasharray:none;stroke:#f0f84f;stroke-opacity:1" d="m 1969.1652,1927.4979 c -54.7858,2.1696 -58.8672,3.4397 -67.2449,20.9204 -7.9369,16.5609 -6.8341,24.4481 5.6838,40.6181 22.3215,28.8324 32.3037,35.8134 58.7361,41.0723 8.1991,1.6317 7.8398,5.2183 -1.6384,16.292 -14.3168,16.7259 -47.4567,33.4608 -61.76,31.1873 -3.3515,-0.5333 -11.7766,-1.478 -18.7214,-2.1017 -21.2345,-1.9052 -31.9218,-8.111 -55.0456,-31.9602 -19.3181,-19.926 -21.5871,-21.5803 -28.6336,-20.9091 -9.5889,0.9175 -9.2748,4.5561 1.9074,22.039 21.5102,33.6236 53.9563,53.545 94.2467,57.8593 27.298,2.9221 55.3281,-8.8681 83.4668,-35.1129 13.1077,-12.2218 24.0323,-18.6061 24.0323,-14.0433 0,6.4409 31.1715,32.3376 48.7471,40.4983 12.2467,5.6883 15.7406,6.2284 40.5209,6.2759 l 27.1194,0.054 15.8197,-8.7912 c 8.7008,-4.8363 19.9644,-11.6274 25.0312,-15.0942 11.7608,-8.0431 32.2495,-30.2585 38.7559,-42.0192 4.3459,-7.8534 4.6125,-9.6613 1.9661,-13.2818 -2.9108,-3.982 -3.3854,-3.8441 -9.5482,2.7978 -3.5685,3.8442 -10.7258,11.9936 -15.9078,18.1113 -5.3765,6.3459 -15.092,14.145 -22.6221,18.1587 -14.0185,7.4714 -47.0251,17.3722 -50.5822,15.1733 -1.1662,-0.7209 -2.1221,-0.2983 -2.1221,0.9401 0,2.8996 -13.4987,0.8814 -28.5568,-4.2713 -11.9574,-4.0905 -31.5557,-17.3722 -41.5017,-28.1273 -5.5956,-6.0522 -5.6069,-6.1403 -1.13,-9.4556 2.486,-1.8419 11.5167,-7.0398 20.0661,-11.5507 17.2751,-9.1166 35.7005,-24.8775 45.3301,-38.7717 5.79,-8.3527 6.19,-10.2285 4.7165,-22.0232 -2.956,-23.6639 -10.0726,-28.9725 -43.391,-32.3647 -36.6835,-3.7335 -43.0521,-3.8871 -87.7403,-2.1199" id="SvgjsPath1314"></path>
    <path style="fill:none;fill-opacity:1;stroke-width:2.27774;stroke-dasharray:none;stroke:#f0f84f;stroke-opacity:1" d="m 2015.4941,1967.9802 c 0,1.243 -1.5254,2.26 -3.3899,2.26 -1.8644,0 -3.3899,1.1865 -3.3899,2.6373 0,1.4487 -0.7616,1.8758 -1.6905,0.9447 -0.9311,-0.9311 0.2803,-3.1345 2.6917,-4.8973 5.2114,-3.8103 5.7786,-3.9029 5.7786,-0.9447" id="SvgjsPath1313"></path>
    <path style="fill:#000100;fill-opacity:1;stroke-width:2.27774;stroke-dasharray:none;stroke:#f0f84f;stroke-opacity:1" d="m 1608.2375,1953.2454 c 3.6611,3.0825 7.9641,8.7527 9.5596,12.6037 2.7074,6.538 2.4656,7.433 -3.6634,13.5529 -9.1234,9.1144 -18.4751,10.6195 -26.5386,4.2781 -8.6624,-6.8137 -11.2816,-14.4863 -8.1697,-23.917 4.3527,-13.1891 17.379,-16.1361 28.8121,-6.5177" id="SvgjsPath1312"></path>
    <path style="fill:#000000;fill-opacity:1;stroke-width:2.27774;stroke-dasharray:none;stroke:#f0f84f;stroke-opacity:1" d="m 1545.0199,1852.8766 c 14.9067,7.4511 21.1622,14.3937 26.4414,29.3613 8.4613,23.9826 0.1469,45.8069 -22.3757,58.7248 -9.885,5.6702 -13.9733,6.6398 -28.0686,6.6578 -17.9982,0.023 -25.1284,-2.5944 -34.7965,-12.7732 -7.8533,-8.2669 -12.2851,-19.1034 -14.2286,-34.7897 -2.1537,-17.379 1.5277,-29.4268 11.7337,-38.3852 19.6073,-17.2163 38.9005,-19.9848 61.2943,-8.7958" id="SvgjsPath1311"></path>
    <path style="fill:#fef4ff;fill-opacity:1;stroke-width:32.50393704;stroke-dasharray:none;stroke:#f0f84f;stroke-opacity:1" d="m 2442.6248,1793.2637 c -3.1075,0.5198 -12.2603,3.0667 -20.3396,5.6589 -44.6747,14.3326 -75.7987,40.4847 -94.9631,79.7898 -11.7427,24.082 -16.6558,43.5176 -16.5654,65.5386 0.1446,36.3806 15.0987,70.9805 42.652,98.6829 26.3578,26.5047 58.1576,43.0837 88.6963,46.2432 17.0694,1.765 51.9088,-2.6193 64.8334,-8.1585 26.8008,-11.4873 58.3294,-39.6598 73.6496,-65.8075 30.5748,-52.1867 28.22,-110.8347 -6.4771,-161.3582 -28.6742,-41.7525 -86.043,-68.1872 -131.4861,-60.5892" id="SvgjsPath1310"></path>
    <path style="fill:#000000;fill-opacity:1;stroke-width:2.27774;stroke-dasharray:none;stroke:#f0f84f;stroke-opacity:1" d="m 2407.3311,1949.7989 c 7.1324,2.712 13.2592,11.867 13.2592,19.813 0,7.0465 -14.5993,20.8797 -22.0956,20.9339 -6.0747,0.045 -18.5723,-11.5777 -20.4367,-19.0039 -1.7198,-6.8499 2.4905,-18.5248 7.7991,-21.6255 4.7617,-2.782 14.3258,-2.8339 21.474,-0.1175" id="SvgjsPath1309"></path>
    <path style="fill:#fefdfe;fill-opacity:1;stroke:#f0f84f;stroke-opacity:1;stroke-width:32.50393704;stroke-dasharray:none" d="m 1505.2787,1799.5034 c -12.7574,3.0306 -28.4663,8.3641 -34.9117,11.8512 -15.3315,8.2962 -35.7524,27.3228 -48.5098,45.2012 -10.7439,15.0558 -23.8629,43.5877 -26.4369,57.4977 -2.5493,13.7699 -2.1357,42.9775 0.8113,57.3169 8.9471,43.5356 40.6972,85.8532 77.7649,103.6481 24.9385,11.9732 32.3308,13.7879 55.6083,13.6523 46.7448,-0.2689 96.1112,-22.6243 121.8407,-55.1721 26.6245,-33.6823 38.2858,-84.2352 28.4324,-123.2374 -5.8487,-23.1509 -22.9181,-54.8422 -37.2665,-69.1906 -27.0245,-27.0245 -63.7804,-44.503 -97.1869,-46.2138 -12.5292,-0.6395 -22.9996,0.5718 -40.1458,4.6465" id="SvgjsPath1308"></path>
    <path style="fill:#000000;fill-opacity:1;stroke-width:2.27774;stroke-dasharray:none;stroke:#f0f84f;stroke-opacity:1" d="m 2501.1145,1850.5828 c 13.1575,7.3945 24.812,27.8697 25.0177,43.9492 0.3458,27.1285 -23.7204,50.3156 -53.8659,51.8998 -25.2098,1.3243 -35.2304,-5.668 -42.8826,-29.9195 -5.747,-18.2039 -6.0566,-27.1194 -1.3401,-38.4056 4.4137,-10.5675 10.7664,-17.5146 23.4989,-25.7024 8.5788,-5.5165 12.3303,-6.4612 25.6821,-6.4612 11.5823,0 17.7745,1.2023 23.8899,4.6397" id="SvgjsPath1307"></path>
    <path style="fill:#fff200;fill-opacity:1;stroke-width:2.27774;stroke-dasharray:none;stroke:#f0f84f;stroke-opacity:1" d="m 2461.8343,1531.9863 c -22.2559,2.1424 -45.1447,8.7641 -63.7916,18.4502 -9.6613,5.0171 -20.4548,10.6263 -23.9826,12.4636 -11.0579,5.7584 -34.2314,29.115 -40.7288,41.0498 -11.702,21.5011 -6.9132,43.1944 13.4919,61.109 17.9802,15.7881 41.3933,21.4854 87.0217,21.178 30.2675,-0.2034 34.1388,-0.7073 46.3289,-6.0431 7.3155,-3.2001 19.022,-7.4239 26.0166,-9.3833 6.9945,-1.9594 18.909,-7.3403 26.4776,-11.9574 53.7235,-32.7783 67.8663,-76.2778 34.1749,-105.1171 -12.2127,-10.4545 -28.2087,-16.4953 -55.1608,-20.8322 -20.9407,-3.3696 -23.8357,-3.4238 -49.8478,-0.9175" id="SvgjsPath1306"></path>
    <path style="fill:#000000;fill-opacity:1;stroke-width:2.27774;stroke-dasharray:none;stroke:#f0f84f;stroke-opacity:1" d="m 2543.7282,1566.5025 c 13.128,4.5154 20.9407,12.5608 20.9203,21.5464 -0.032,15.1371 -9.5392,31.8653 -19.996,35.1851 -2.6668,0.8453 -4.8499,2.373 -4.8499,3.3922 0,3.2159 -29.0697,14.3597 -36.7355,14.084 -4.034,-0.1446 -10.5562,1.234 -14.4975,3.0668 -24.7036,11.4851 -118.2632,13.9122 -118.2632,3.0667 0,-1.1729 -2.5425,-3.2904 -5.6499,-4.7074 -3.1075,-1.4148 -5.6499,-3.8894 -5.6499,-5.4985 0,-1.6091 -2.5967,-5.5211 -5.7674,-8.694 -5.7244,-5.7222 -5.738,-5.8217 -1.695,-12.7846 9.989,-17.205 20.5498,-26.1521 41.886,-35.4789 11.5212,-5.0352 25.5216,-10.2557 31.115,-11.6026 29.5353,-7.103 100.3802,-8.0409 119.183,-1.5752" id="SvgjsPath1305"></path>
    <path style="fill:#fff800;fill-opacity:1;stroke-width:2.27774;stroke-dasharray:none;stroke:#f0f84f;stroke-opacity:1" d="m 1485.5358,1531.6789 c -13.7428,2.1854 -36.0078,8.3257 -42.1933,11.6365 -8.7076,4.66 -22.5769,18.7644 -27.0245,27.4787 -5.973,11.7111 -7.7471,28.3263 -4.1786,39.1401 4.1696,12.6354 33.3433,40.6972 53.2037,51.1743 23.1374,12.206 63.8911,24.5386 85.955,26.0121 20.5203,1.3695 52.9777,-3.5843 71.6042,-10.9246 26.907,-10.6082 44.5595,-30.2133 44.5595,-49.4952 0,-15.5213 -10.7664,-35.4925 -27.0652,-50.2025 -18.4999,-16.6965 -34.2043,-25.5759 -63.7577,-36.053 -23.4606,-8.3144 -27.7974,-9.1234 -52.684,-9.8127 -14.9156,-0.4136 -32.2043,0.059 -38.4191,1.0463" id="SvgjsPath1304"></path>
    <path style="fill:#000000;fill-opacity:1;stroke-width:2.27774;stroke-dasharray:none;stroke:#f0f84f;stroke-opacity:1" d="m 1546.6358,1564.7488 c 38.6949,5.0306 81.3266,23.1464 92.5337,39.3186 14.2919,20.622 12.3642,34.114 -6.3347,44.338 -11.5257,6.303 -12.2783,6.4001 -50.1212,6.486 -41.1469,0.093 -57.301,-2.3774 -91.5279,-13.9913 -25.603,-8.6873 -46.329,-23.7272 -54.4468,-39.5062 -5.7086,-11.0986 -5.4397,-15.9169 1.3289,-23.9623 14.6512,-17.4129 44.9572,-20.952 108.568,-12.6828" id="SvgjsPath1303"></path>
    <path style="fill:#000000;fill-opacity:1;stroke-width:24.1889764;stroke-dasharray:none;stroke:#f0f84f;stroke-opacity:1" d="m 2058.849,829.20273 c 2.095,1.11189 9.9031,2.02265 17.3519,2.02265 12.1495,0 24.3216,1.21811 56.8107,5.68152 5.5933,0.76838 16.7801,2.30515 24.8594,3.41252 8.0793,1.10738 19.2661,3.08709 24.8595,4.3956 5.5934,1.31078 12.7122,2.89952 15.8196,3.53231 3.1075,0.63278 8.7008,1.83282 12.4298,2.66448 3.7289,0.83166 7.6499,1.28365 8.7121,1.00342 1.0644,-0.28024 3.3063,0.63052 4.9854,2.02491 1.6792,1.39439 4.0453,1.92096 5.2567,1.17292 1.2113,-0.75031 2.852,-0.31188 3.6453,0.97178 0.7932,1.28365 2.3593,1.76728 3.478,1.07573 1.121,-0.6938 6.8974,0.79098 12.8388,3.29727 5.9414,2.50628 15.7202,5.6205 21.7317,6.92449 6.0114,1.30173 16.9135,4.88601 24.2267,7.96632 7.3131,3.07805 14.9269,5.59564 16.9179,5.59564 9.293,0 51.9427,30.73307 63.7329,45.92445 15.0965,19.45817 21.9102,60.29322 10.0568,60.29322 -2.8001,0 -2.9967,0.60341 -0.8882,2.71194 3.9391,3.93909 3.338,10.9269 -1.8079,21.0175 -2.486,4.877 -4.5199,10.1156 -4.5199,11.6433 0,5.8329 -5.0194,5.4013 -15.1395,-1.3017 -5.7719,-3.8239 -11.8466,-6.9516 -13.4964,-6.9516 -1.652,0 -3.0034,-0.904 -3.0034,-2.0091 0,-1.1029 -3.6634,-2.6939 -8.1381,-3.5346 -4.477,-0.8407 -16.9361,-5.3787 -27.6844,-10.08841 -10.7506,-4.70748 -30.7331,-12.28509 -44.4058,-16.83663 -13.6727,-4.5538 -26.4866,-9.19348 -28.4776,-10.31216 -5.3742,-3.02381 -57.1067,-15.36088 -81.4057,-19.41297 -11.6568,-1.94582 -28.3127,-4.96285 -37.0135,-6.70753 -8.7008,-1.74469 -25.4809,-3.76056 -37.2891,-4.47697 -11.8083,-0.7164 -34.6903,-2.38198 -50.8489,-3.7018 -35.3592,-2.88821 -128.1324,2.15148 -146.8968,7.98215 -6.2149,1.93 -16.6084,3.521 -23.0967,3.53456 -12.0591,0.0249 -61.3803,11.06924 -95.1733,21.31133 -10.3596,3.13908 -19.5124,5.52558 -20.3395,5.30637 -0.8294,-0.22148 -4.5584,1.20907 -8.2873,3.17975 -3.7289,1.97067 -10.3393,4.27808 -14.6897,5.12783 -9.7155,1.90061 -31.185,10.02062 -37.2281,14.08175 -2.4498,1.6475 -6.7121,2.99673 -9.4692,2.99673 -2.7594,0 -5.6431,1.0169 -6.4115,2.2599 -0.7684,1.243 -3.7425,2.26 -6.6081,2.26 -2.8679,0 -7.6364,1.8373 -10.6014,4.0837 -2.9651,2.2486 -11.345,7.0443 -18.622,10.6602 -12.5066,6.2148 -13.3925,6.355 -16.1767,2.5469 -5.0736,-6.938 -10.5314,-34.22691 -10.615,-53.06811 -0.084,-19.29998 0.075,-19.70903 18.127,-47.4567 13.6049,-20.91132 44.4555,-39.21466 93.8716,-55.68744 16.3485,-5.451 33.2823,-10.44549 37.6327,-11.10314 12.5337,-1.88931 39.1152,-8.10644 44.069,-10.30763 12.4365,-5.52332 31.7139,-7.67027 109.8381,-12.23085 31.1738,-1.82152 55.1225,-4.21255 57.6288,-5.75609 5.0035,-3.08032 83.1119,-1.0893 89.4533,2.28029" id="SvgjsPath1302"></path>
    <path style="fill:none;fill-opacity:1;stroke-width:2.27774;stroke-dasharray:none;stroke:#f0f84f;stroke-opacity:1" d="m 2375.9562,1009.7615 c -0.7684,1.2429 -0.3186,2.2599 0.9967,2.2599 1.3153,0 2.3933,-1.017 2.3933,-2.2599 0,-1.243 -0.4475,-2.26 -0.9967,-2.26 -0.5491,0 -1.6249,1.017 -2.3933,2.26" id="SvgjsPath1301"></path>
    <path style="fill:#000000;fill-opacity:1;stroke-width:47.62204728;stroke-dasharray:none;stroke:#f0f84f;stroke-opacity:1" d="m 1984.2096,301.28735 c 7.033,0.7616 21.1102,0.24182 31.2845,-1.15031 14.8118,-2.02718 19.343,-1.94356 22.7306,0.42939 2.3278,1.62716 12.6128,19.23218 22.8572,39.11974 10.2443,19.88756 27.5668,53.44783 38.4937,74.57836 10.9291,21.13054 24.1928,46.78776 29.4765,57.01629 15.2366,29.49009 56.9282,113.09244 65.6742,131.68957 4.382,9.3223 16.1903,34.09361 26.2358,55.04561 10.0477,20.95426 18.2671,38.37396 18.2671,38.71521 0,1.34693 27.7545,58.92143 48.32,100.23106 19.4401,39.05195 23.7069,50.70425 17.0717,46.60244 -2.0475,-1.26557 -6.5132,-2.41589 -17.9327,-4.6216 -11.5077,-2.22379 -30.5975,-8.21718 -33.3343,-10.46809 -1.5526,-1.27687 -2.8249,-1.74468 -2.8249,-1.03732 0,0.70511 -4.8295,-0.0949 -10.7348,-1.78084 -5.9052,-1.68592 -19.8875,-4.3278 -31.0743,-5.87361 -11.1868,-1.54354 -21.865,-4.08599 -23.7295,-5.64761 -6.0973,-5.10975 -26.9273,-10.65341 -35.0676,-9.33134 -4.2917,0.69607 -11.1235,0.226 -15.1824,-1.04636 -4.0588,-1.27235 -21.6164,-3.17297 -39.018,-4.22384 -17.4016,-1.05088 -36.496,-3.00574 -42.4306,-4.34137 -17.3609,-3.91197 -62.7023,-5.60468 -75.236,-2.81138 -6.1335,1.36727 -18.2694,3.02608 -26.9702,3.68598 -8.7009,0.65765 -28.0234,2.37069 -42.9391,3.80576 -14.9157,1.43507 -31.6958,2.99217 -37.2892,3.4645 -44.9436,3.78316 -119.0768,22.58143 -166.1063,42.1187 -20.4232,8.48385 -23.7295,9.22286 -23.7295,5.30636 0,-6.3708 34.9501,-77.84851 114.5343,-234.23256 27.5149,-54.06931 58.0039,-114.07099 67.751,-133.33707 9.7449,-19.26608 18.4842,-35.36822 19.4153,-35.7818 0.9311,-0.41583 1.6949,-1.66106 1.6949,-2.76843 0,-2.782 8.4771,-20.90681 41.5198,-88.7799 l 28.4325,-58.40163 8.5268,1.22263 c 4.6916,0.67346 14.2828,1.84412 21.3135,2.60346" id="SvgjsPath1300"></path>
    <path style="fill:#000000;fill-opacity:1;stroke-width:29.48031496;stroke-dasharray:none;stroke:#f0f84f;stroke-opacity:1" d="m 2034.1433,89.685936 c 17.1326,6.752731 34.08,20.411874 43.2916,34.891374 12.1901,19.15986 14.9744,45.02951 9.3381,86.74594 -1.0916,8.07932 -15.4219,28.10248 -23.2504,32.48904 -2.7955,1.56389 -4.6329,3.29727 -4.0815,3.84644 1.9323,1.93452 -12.0455,11.93254 -23.9803,17.15302 -15.605,6.82731 -28.6155,8.42058 -48.3652,5.93011 -20.5339,-2.59216 -35.8654,-7.84881 -47.7505,-16.37108 -9.2522,-6.63521 -24.3284,-27.57139 -29.7681,-41.33449 -2.9266,-7.39908 -5.7764,-34.18627 -5.4148,-50.86923 0.5808,-26.71487 30.2788,-63.737376 59.8684,-74.634857 16.7801,-6.180964 51.6963,-5.107488 70.1127,2.153733" id="SvgjsPath1299"></path>
  </g>
  <script id="SvgjsScript1298" type="text/javascript">
!function(){const t="http://www.w3.org/2000/svg",e="http://www.w3.org/1999/xlink",s="http://www.w3.org/1999/xhtml",r=2;if(document.createElementNS(t,"meshgradient").x)return;const n=(t,e,s,r)=&gt;{let n=new x(.5*(e.x+s.x),.5*(e.y+s.y)),o=new x(.5*(t.x+e.x),.5*(t.y+e.y)),i=new x(.5*(s.x+r.x),.5*(s.y+r.y)),a=new x(.5*(n.x+o.x),.5*(n.y+o.y)),h=new x(.5*(n.x+i.x),.5*(n.y+i.y)),l=new x(.5*(a.x+h.x),.5*(a.y+h.y));return[[t,o,a,l],[l,h,i,r]]},o=t=&gt;{let e=t[0].distSquared(t[1]),s=t[2].distSquared(t[3]),r=.25*t[0].distSquared(t[2]),n=.25*t[1].distSquared(t[3]),o=e&gt;s?e:s,i=r&gt;n?r:n;return 18*(o&gt;i?o:i)},i=(t,e)=&gt;Math.sqrt(t.distSquared(e)),a=(t,e)=&gt;t.scale(2/3).add(e.scale(1/3)),h=t=&gt;{let e,s,r,n,o,i,a,h=new g;return t.match(/(\w+\(\s*[^)]+\))+/g).forEach(t=&gt;{let l=t.match(/[\w.-]+/g),d=l.shift();switch(d){case"translate":2===l.length?e=new g(1,0,0,1,l[0],l[1]):(console.error("mesh.js: translate does not have 2 arguments!"),e=new g(1,0,0,1,0,0)),h=h.append(e);break;case"scale":1===l.length?s=new g(l[0],0,0,l[0],0,0):2===l.length?s=new g(l[0],0,0,l[1],0,0):(console.error("mesh.js: scale does not have 1 or 2 arguments!"),s=new g(1,0,0,1,0,0)),h=h.append(s);break;case"rotate":if(3===l.length&amp;&amp;(e=new g(1,0,0,1,l[1],l[2]),h=h.append(e)),l[0]){r=l[0]*Math.PI/180;let t=Math.cos(r),e=Math.sin(r);Math.abs(t)&lt;1e-16&amp;&amp;(t=0),Math.abs(e)&lt;1e-16&amp;&amp;(e=0),a=new g(t,e,-e,t,0,0),h=h.append(a)}else console.error("math.js: No argument to rotate transform!");3===l.length&amp;&amp;(e=new g(1,0,0,1,-l[1],-l[2]),h=h.append(e));break;case"skewX":l[0]?(r=l[0]*Math.PI/180,n=Math.tan(r),o=new g(1,0,n,1,0,0),h=h.append(o)):console.error("math.js: No argument to skewX transform!");break;case"skewY":l[0]?(r=l[0]*Math.PI/180,n=Math.tan(r),i=new g(1,n,0,1,0,0),h=h.append(i)):console.error("math.js: No argument to skewY transform!");break;case"matrix":6===l.length?h=h.append(new g(...l)):console.error("math.js: Incorrect number of arguments for matrix!");break;default:console.error("mesh.js: Unhandled transform type: "+d)}}),h},l=t=&gt;{let e=[],s=t.split(/[ ,]+/);for(let t=0,r=s.length-1;t&lt;r;t+=2)e.push(new x(parseFloat(s[t]),parseFloat(s[t+1])));return e},d=(t,e)=&gt;{for(let s in e)t.setAttribute(s,e[s])},c=(t,e,s,r,n)=&gt;{let o,i,a=[0,0,0,0];for(let h=0;h&lt;3;++h)e[h]&lt;t[h]&amp;&amp;e[h]&lt;s[h]||t[h]&lt;e[h]&amp;&amp;s[h]&lt;e[h]?a[h]=0:(a[h]=.5*((e[h]-t[h])/r+(s[h]-e[h])/n),o=Math.abs(3*(e[h]-t[h])/r),i=Math.abs(3*(s[h]-e[h])/n),a[h]&gt;o?a[h]=o:a[h]&gt;i&amp;&amp;(a[h]=i));return a},u=[[1,0,0,0,0,0,0,0,0,0,0,0,0,0,0,0],[0,0,0,0,1,0,0,0,0,0,0,0,0,0,0,0],[-3,3,0,0,-2,-1,0,0,0,0,0,0,0,0,0,0],[2,-2,0,0,1,1,0,0,0,0,0,0,0,0,0,0],[0,0,0,0,0,0,0,0,1,0,0,0,0,0,0,0],[0,0,0,0,0,0,0,0,0,0,0,0,1,0,0,0],[0,0,0,0,0,0,0,0,-3,3,0,0,-2,-1,0,0],[0,0,0,0,0,0,0,0,2,-2,0,0,1,1,0,0],[-3,0,3,0,0,0,0,0,-2,0,-1,0,0,0,0,0],[0,0,0,0,-3,0,3,0,0,0,0,0,-2,0,-1,0],[9,-9,-9,9,6,3,-6,-3,6,-6,3,-3,4,2,2,1],[-6,6,6,-6,-3,-3,3,3,-4,4,-2,2,-2,-2,-1,-1],[2,0,-2,0,0,0,0,0,1,0,1,0,0,0,0,0],[0,0,0,0,2,0,-2,0,0,0,0,0,1,0,1,0],[-6,6,6,-6,-4,-2,4,2,-3,3,-3,3,-2,-1,-2,-1],[4,-4,-4,4,2,2,-2,-2,2,-2,2,-2,1,1,1,1]],f=t=&gt;{let e=[];for(let s=0;s&lt;16;++s){e[s]=0;for(let r=0;r&lt;16;++r)e[s]+=u[s][r]*t[r]}return e},p=(t,e,s)=&gt;{const r=e*e,n=s*s,o=e*e*e,i=s*s*s;return t[0]+t[1]*e+t[2]*r+t[3]*o+t[4]*s+t[5]*s*e+t[6]*s*r+t[7]*s*o+t[8]*n+t[9]*n*e+t[10]*n*r+t[11]*n*o+t[12]*i+t[13]*i*e+t[14]*i*r+t[15]*i*o},y=t=&gt;{let e=[],s=[],r=[];for(let s=0;s&lt;4;++s)e[s]=[],e[s][0]=n(t[0][s],t[1][s],t[2][s],t[3][s]),e[s][1]=[],e[s][1].push(...n(...e[s][0][0])),e[s][1].push(...n(...e[s][0][1])),e[s][2]=[],e[s][2].push(...n(...e[s][1][0])),e[s][2].push(...n(...e[s][1][1])),e[s][2].push(...n(...e[s][1][2])),e[s][2].push(...n(...e[s][1][3]));for(let t=0;t&lt;8;++t){s[t]=[];for(let r=0;r&lt;4;++r)s[t][r]=[],s[t][r][0]=n(e[0][2][t][r],e[1][2][t][r],e[2][2][t][r],e[3][2][t][r]),s[t][r][1]=[],s[t][r][1].push(...n(...s[t][r][0][0])),s[t][r][1].push(...n(...s[t][r][0][1])),s[t][r][2]=[],s[t][r][2].push(...n(...s[t][r][1][0])),s[t][r][2].push(...n(...s[t][r][1][1])),s[t][r][2].push(...n(...s[t][r][1][2])),s[t][r][2].push(...n(...s[t][r][1][3]))}for(let t=0;t&lt;8;++t){r[t]=[];for(let e=0;e&lt;8;++e)r[t][e]=[],r[t][e][0]=s[t][0][2][e],r[t][e][1]=s[t][1][2][e],r[t][e][2]=s[t][2][2][e],r[t][e][3]=s[t][3][2][e]}return r};class x{constructor(t,e){this.x=t||0,this.y=e||0}toString(){return`(x=${this.x}, y=${this.y})`}clone(){return new x(this.x,this.y)}add(t){return new x(this.x+t.x,this.y+t.y)}scale(t){return void 0===t.x?new x(this.x*t,this.y*t):new x(this.x*t.x,this.y*t.y)}distSquared(t){let e=this.x-t.x,s=this.y-t.y;return e*e+s*s}transform(t){let e=this.x*t.a+this.y*t.c+t.e,s=this.x*t.b+this.y*t.d+t.f;return new x(e,s)}}class g{constructor(t,e,s,r,n,o){void 0===t?(this.a=1,this.b=0,this.c=0,this.d=1,this.e=0,this.f=0):(this.a=t,this.b=e,this.c=s,this.d=r,this.e=n,this.f=o)}toString(){return`affine: ${this.a} ${this.c} ${this.e} \n       ${this.b} ${this.d} ${this.f}`}append(t){t instanceof g||console.error("mesh.js: argument to Affine.append is not affine!");let e=this.a*t.a+this.c*t.b,s=this.b*t.a+this.d*t.b,r=this.a*t.c+this.c*t.d,n=this.b*t.c+this.d*t.d,o=this.a*t.e+this.c*t.f+this.e,i=this.b*t.e+this.d*t.f+this.f;return new g(e,s,r,n,o,i)}}class w{constructor(t,e){this.nodes=t,this.colors=e}paintCurve(t,e){if(o(this.nodes)&gt;r){const s=n(...this.nodes);let r=[[],[]],o=[[],[]];for(let t=0;t&lt;4;++t)r[0][t]=this.colors[0][t],r[1][t]=(this.colors[0][t]+this.colors[1][t])/2,o[0][t]=r[1][t],o[1][t]=this.colors[1][t];let i=new w(s[0],r),a=new w(s[1],o);i.paintCurve(t,e),a.paintCurve(t,e)}else{let s=Math.round(this.nodes[0].x);if(s&gt;=0&amp;&amp;s&lt;e){let r=4*(~~this.nodes[0].y*e+s);t[r]=Math.round(this.colors[0][0]),t[r+1]=Math.round(this.colors[0][1]),t[r+2]=Math.round(this.colors[0][2]),t[r+3]=Math.round(this.colors[0][3])}}}}class m{constructor(t,e){this.nodes=t,this.colors=e}split(){let t=[[],[],[],[]],e=[[],[],[],[]],s=[[[],[]],[[],[]]],r=[[[],[]],[[],[]]];for(let s=0;s&lt;4;++s){const r=n(this.nodes[0][s],this.nodes[1][s],this.nodes[2][s],this.nodes[3][s]);t[0][s]=r[0][0],t[1][s]=r[0][1],t[2][s]=r[0][2],t[3][s]=r[0][3],e[0][s]=r[1][0],e[1][s]=r[1][1],e[2][s]=r[1][2],e[3][s]=r[1][3]}for(let t=0;t&lt;4;++t)s[0][0][t]=this.colors[0][0][t],s[0][1][t]=this.colors[0][1][t],s[1][0][t]=(this.colors[0][0][t]+this.colors[1][0][t])/2,s[1][1][t]=(this.colors[0][1][t]+this.colors[1][1][t])/2,r[0][0][t]=s[1][0][t],r[0][1][t]=s[1][1][t],r[1][0][t]=this.colors[1][0][t],r[1][1][t]=this.colors[1][1][t];return[new m(t,s),new m(e,r)]}paint(t,e){let s,n=!1;for(let t=0;t&lt;4;++t)if((s=o([this.nodes[0][t],this.nodes[1][t],this.nodes[2][t],this.nodes[3][t]]))&gt;r){n=!0;break}if(n){let s=this.split();s[0].paint(t,e),s[1].paint(t,e)}else{new w([...this.nodes[0]],[...this.colors[0]]).paintCurve(t,e)}}}class b{constructor(t){this.readMesh(t),this.type=t.getAttribute("type")||"bilinear"}readMesh(t){let e=[[]],s=[[]],r=Number(t.getAttribute("x")),n=Number(t.getAttribute("y"));e[0][0]=new x(r,n);let o=t.children;for(let t=0,r=o.length;t&lt;r;++t){e[3*t+1]=[],e[3*t+2]=[],e[3*t+3]=[],s[t+1]=[];let r=o[t].children;for(let n=0,o=r.length;n&lt;o;++n){let o=r[n].children;for(let r=0,i=o.length;r&lt;i;++r){let i=r;0!==t&amp;&amp;++i;let h,d=o[r].getAttribute("path"),c="l";null!=d&amp;&amp;(c=(h=d.match(/\s*([lLcC])\s*(.*)/))[1]);let u=l(h[2]);switch(c){case"l":0===i?(e[3*t][3*n+3]=u[0].add(e[3*t][3*n]),e[3*t][3*n+1]=a(e[3*t][3*n],e[3*t][3*n+3]),e[3*t][3*n+2]=a(e[3*t][3*n+3],e[3*t][3*n])):1===i?(e[3*t+3][3*n+3]=u[0].add(e[3*t][3*n+3]),e[3*t+1][3*n+3]=a(e[3*t][3*n+3],e[3*t+3][3*n+3]),e[3*t+2][3*n+3]=a(e[3*t+3][3*n+3],e[3*t][3*n+3])):2===i?(0===n&amp;&amp;(e[3*t+3][3*n+0]=u[0].add(e[3*t+3][3*n+3])),e[3*t+3][3*n+1]=a(e[3*t+3][3*n],e[3*t+3][3*n+3]),e[3*t+3][3*n+2]=a(e[3*t+3][3*n+3],e[3*t+3][3*n])):(e[3*t+1][3*n]=a(e[3*t][3*n],e[3*t+3][3*n]),e[3*t+2][3*n]=a(e[3*t+3][3*n],e[3*t][3*n]));break;case"L":0===i?(e[3*t][3*n+3]=u[0],e[3*t][3*n+1]=a(e[3*t][3*n],e[3*t][3*n+3]),e[3*t][3*n+2]=a(e[3*t][3*n+3],e[3*t][3*n])):1===i?(e[3*t+3][3*n+3]=u[0],e[3*t+1][3*n+3]=a(e[3*t][3*n+3],e[3*t+3][3*n+3]),e[3*t+2][3*n+3]=a(e[3*t+3][3*n+3],e[3*t][3*n+3])):2===i?(0===n&amp;&amp;(e[3*t+3][3*n+0]=u[0]),e[3*t+3][3*n+1]=a(e[3*t+3][3*n],e[3*t+3][3*n+3]),e[3*t+3][3*n+2]=a(e[3*t+3][3*n+3],e[3*t+3][3*n])):(e[3*t+1][3*n]=a(e[3*t][3*n],e[3*t+3][3*n]),e[3*t+2][3*n]=a(e[3*t+3][3*n],e[3*t][3*n]));break;case"c":0===i?(e[3*t][3*n+1]=u[0].add(e[3*t][3*n]),e[3*t][3*n+2]=u[1].add(e[3*t][3*n]),e[3*t][3*n+3]=u[2].add(e[3*t][3*n])):1===i?(e[3*t+1][3*n+3]=u[0].add(e[3*t][3*n+3]),e[3*t+2][3*n+3]=u[1].add(e[3*t][3*n+3]),e[3*t+3][3*n+3]=u[2].add(e[3*t][3*n+3])):2===i?(e[3*t+3][3*n+2]=u[0].add(e[3*t+3][3*n+3]),e[3*t+3][3*n+1]=u[1].add(e[3*t+3][3*n+3]),0===n&amp;&amp;(e[3*t+3][3*n+0]=u[2].add(e[3*t+3][3*n+3]))):(e[3*t+2][3*n]=u[0].add(e[3*t+3][3*n]),e[3*t+1][3*n]=u[1].add(e[3*t+3][3*n]));break;case"C":0===i?(e[3*t][3*n+1]=u[0],e[3*t][3*n+2]=u[1],e[3*t][3*n+3]=u[2]):1===i?(e[3*t+1][3*n+3]=u[0],e[3*t+2][3*n+3]=u[1],e[3*t+3][3*n+3]=u[2]):2===i?(e[3*t+3][3*n+2]=u[0],e[3*t+3][3*n+1]=u[1],0===n&amp;&amp;(e[3*t+3][3*n+0]=u[2])):(e[3*t+2][3*n]=u[0],e[3*t+1][3*n]=u[1]);break;default:console.error("mesh.js: "+c+" invalid path type.")}if(0===t&amp;&amp;0===n||r&gt;0){let e=window.getComputedStyle(o[r]).stopColor.match(/^rgb\s*\(\s*(\d+)\s*,\s*(\d+)\s*,\s*(\d+)\s*\)$/i),a=window.getComputedStyle(o[r]).stopOpacity,h=255;a&amp;&amp;(h=Math.floor(255*a)),e&amp;&amp;(0===i?(s[t][n]=[],s[t][n][0]=Math.floor(e[1]),s[t][n][1]=Math.floor(e[2]),s[t][n][2]=Math.floor(e[3]),s[t][n][3]=h):1===i?(s[t][n+1]=[],s[t][n+1][0]=Math.floor(e[1]),s[t][n+1][1]=Math.floor(e[2]),s[t][n+1][2]=Math.floor(e[3]),s[t][n+1][3]=h):2===i?(s[t+1][n+1]=[],s[t+1][n+1][0]=Math.floor(e[1]),s[t+1][n+1][1]=Math.floor(e[2]),s[t+1][n+1][2]=Math.floor(e[3]),s[t+1][n+1][3]=h):3===i&amp;&amp;(s[t+1][n]=[],s[t+1][n][0]=Math.floor(e[1]),s[t+1][n][1]=Math.floor(e[2]),s[t+1][n][2]=Math.floor(e[3]),s[t+1][n][3]=h))}}e[3*t+1][3*n+1]=new x,e[3*t+1][3*n+2]=new x,e[3*t+2][3*n+1]=new x,e[3*t+2][3*n+2]=new x,e[3*t+1][3*n+1].x=(-4*e[3*t][3*n].x+6*(e[3*t][3*n+1].x+e[3*t+1][3*n].x)+-2*(e[3*t][3*n+3].x+e[3*t+3][3*n].x)+3*(e[3*t+3][3*n+1].x+e[3*t+1][3*n+3].x)+-1*e[3*t+3][3*n+3].x)/9,e[3*t+1][3*n+2].x=(-4*e[3*t][3*n+3].x+6*(e[3*t][3*n+2].x+e[3*t+1][3*n+3].x)+-2*(e[3*t][3*n].x+e[3*t+3][3*n+3].x)+3*(e[3*t+3][3*n+2].x+e[3*t+1][3*n].x)+-1*e[3*t+3][3*n].x)/9,e[3*t+2][3*n+1].x=(-4*e[3*t+3][3*n].x+6*(e[3*t+3][3*n+1].x+e[3*t+2][3*n].x)+-2*(e[3*t+3][3*n+3].x+e[3*t][3*n].x)+3*(e[3*t][3*n+1].x+e[3*t+2][3*n+3].x)+-1*e[3*t][3*n+3].x)/9,e[3*t+2][3*n+2].x=(-4*e[3*t+3][3*n+3].x+6*(e[3*t+3][3*n+2].x+e[3*t+2][3*n+3].x)+-2*(e[3*t+3][3*n].x+e[3*t][3*n+3].x)+3*(e[3*t][3*n+2].x+e[3*t+2][3*n].x)+-1*e[3*t][3*n].x)/9,e[3*t+1][3*n+1].y=(-4*e[3*t][3*n].y+6*(e[3*t][3*n+1].y+e[3*t+1][3*n].y)+-2*(e[3*t][3*n+3].y+e[3*t+3][3*n].y)+3*(e[3*t+3][3*n+1].y+e[3*t+1][3*n+3].y)+-1*e[3*t+3][3*n+3].y)/9,e[3*t+1][3*n+2].y=(-4*e[3*t][3*n+3].y+6*(e[3*t][3*n+2].y+e[3*t+1][3*n+3].y)+-2*(e[3*t][3*n].y+e[3*t+3][3*n+3].y)+3*(e[3*t+3][3*n+2].y+e[3*t+1][3*n].y)+-1*e[3*t+3][3*n].y)/9,e[3*t+2][3*n+1].y=(-4*e[3*t+3][3*n].y+6*(e[3*t+3][3*n+1].y+e[3*t+2][3*n].y)+-2*(e[3*t+3][3*n+3].y+e[3*t][3*n].y)+3*(e[3*t][3*n+1].y+e[3*t+2][3*n+3].y)+-1*e[3*t][3*n+3].y)/9,e[3*t+2][3*n+2].y=(-4*e[3*t+3][3*n+3].y+6*(e[3*t+3][3*n+2].y+e[3*t+2][3*n+3].y)+-2*(e[3*t+3][3*n].y+e[3*t][3*n+3].y)+3*(e[3*t][3*n+2].y+e[3*t+2][3*n].y)+-1*e[3*t][3*n].y)/9}}this.nodes=e,this.colors=s}paintMesh(t,e){let s=(this.nodes.length-1)/3,r=(this.nodes[0].length-1)/3;if("bilinear"===this.type||s&lt;2||r&lt;2){let n;for(let o=0;o&lt;s;++o)for(let s=0;s&lt;r;++s){let r=[];for(let t=3*o,e=3*o+4;t&lt;e;++t)r.push(this.nodes[t].slice(3*s,3*s+4));let i=[];i.push(this.colors[o].slice(s,s+2)),i.push(this.colors[o+1].slice(s,s+2)),(n=new m(r,i)).paint(t,e)}}else{let n,o,a,h,l,d,u;const x=s,g=r;s++,r++;let w=new Array(s);for(let t=0;t&lt;s;++t){w[t]=new Array(r);for(let e=0;e&lt;r;++e)w[t][e]=[],w[t][e][0]=this.nodes[3*t][3*e],w[t][e][1]=this.colors[t][e]}for(let t=0;t&lt;s;++t)for(let e=0;e&lt;r;++e)0!==t&amp;&amp;t!==x&amp;&amp;(n=i(w[t-1][e][0],w[t][e][0]),o=i(w[t+1][e][0],w[t][e][0]),w[t][e][2]=c(w[t-1][e][1],w[t][e][1],w[t+1][e][1],n,o)),0!==e&amp;&amp;e!==g&amp;&amp;(n=i(w[t][e-1][0],w[t][e][0]),o=i(w[t][e+1][0],w[t][e][0]),w[t][e][3]=c(w[t][e-1][1],w[t][e][1],w[t][e+1][1],n,o));for(let t=0;t&lt;r;++t){w[0][t][2]=[],w[x][t][2]=[];for(let e=0;e&lt;4;++e)n=i(w[1][t][0],w[0][t][0]),o=i(w[x][t][0],w[x-1][t][0]),w[0][t][2][e]=n&gt;0?2*(w[1][t][1][e]-w[0][t][1][e])/n-w[1][t][2][e]:0,w[x][t][2][e]=o&gt;0?2*(w[x][t][1][e]-w[x-1][t][1][e])/o-w[x-1][t][2][e]:0}for(let t=0;t&lt;s;++t){w[t][0][3]=[],w[t][g][3]=[];for(let e=0;e&lt;4;++e)n=i(w[t][1][0],w[t][0][0]),o=i(w[t][g][0],w[t][g-1][0]),w[t][0][3][e]=n&gt;0?2*(w[t][1][1][e]-w[t][0][1][e])/n-w[t][1][3][e]:0,w[t][g][3][e]=o&gt;0?2*(w[t][g][1][e]-w[t][g-1][1][e])/o-w[t][g-1][3][e]:0}for(let s=0;s&lt;x;++s)for(let r=0;r&lt;g;++r){let n=i(w[s][r][0],w[s+1][r][0]),o=i(w[s][r+1][0],w[s+1][r+1][0]),c=i(w[s][r][0],w[s][r+1][0]),x=i(w[s+1][r][0],w[s+1][r+1][0]),g=[[],[],[],[]];for(let t=0;t&lt;4;++t){(d=[])[0]=w[s][r][1][t],d[1]=w[s+1][r][1][t],d[2]=w[s][r+1][1][t],d[3]=w[s+1][r+1][1][t],d[4]=w[s][r][2][t]*n,d[5]=w[s+1][r][2][t]*n,d[6]=w[s][r+1][2][t]*o,d[7]=w[s+1][r+1][2][t]*o,d[8]=w[s][r][3][t]*c,d[9]=w[s+1][r][3][t]*x,d[10]=w[s][r+1][3][t]*c,d[11]=w[s+1][r+1][3][t]*x,d[12]=0,d[13]=0,d[14]=0,d[15]=0,u=f(d);for(let e=0;e&lt;9;++e){g[t][e]=[];for(let s=0;s&lt;9;++s)g[t][e][s]=p(u,e/8,s/8),g[t][e][s]&gt;255?g[t][e][s]=255:g[t][e][s]&lt;0&amp;&amp;(g[t][e][s]=0)}}h=[];for(let t=3*s,e=3*s+4;t&lt;e;++t)h.push(this.nodes[t].slice(3*r,3*r+4));l=y(h);for(let s=0;s&lt;8;++s)for(let r=0;r&lt;8;++r)(a=new m(l[s][r],[[[g[0][s][r],g[1][s][r],g[2][s][r],g[3][s][r]],[g[0][s][r+1],g[1][s][r+1],g[2][s][r+1],g[3][s][r+1]]],[[g[0][s+1][r],g[1][s+1][r],g[2][s+1][r],g[3][s+1][r]],[g[0][s+1][r+1],g[1][s+1][r+1],g[2][s+1][r+1],g[3][s+1][r+1]]]])).paint(t,e)}}}transform(t){if(t instanceof x)for(let e=0,s=this.nodes.length;e&lt;s;++e)for(let s=0,r=this.nodes[0].length;s&lt;r;++s)this.nodes[e][s]=this.nodes[e][s].add(t);else if(t instanceof g)for(let e=0,s=this.nodes.length;e&lt;s;++e)for(let s=0,r=this.nodes[0].length;s&lt;r;++s)this.nodes[e][s]=this.nodes[e][s].transform(t)}scale(t){for(let e=0,s=this.nodes.length;e&lt;s;++e)for(let s=0,r=this.nodes[0].length;s&lt;r;++s)this.nodes[e][s]=this.nodes[e][s].scale(t)}}document.querySelectorAll("rect,circle,ellipse,path,text").forEach((r,n)=&gt;{let o=r.getAttribute("id");o||(o="patchjs_shape"+n,r.setAttribute("id",o));const i=r.style.fill.match(/^url\(\s*"?\s*#([^\s"]+)"?\s*\)/),a=r.style.stroke.match(/^url\(\s*"?\s*#([^\s"]+)"?\s*\)/);if(i&amp;&amp;i[1]){const a=document.getElementById(i[1]);if(a&amp;&amp;"meshgradient"===a.nodeName){const i=r.getBBox();let l=document.createElementNS(s,"canvas");d(l,{width:i.width,height:i.height});const c=l.getContext("2d");let u=c.createImageData(i.width,i.height);const f=new b(a);"objectBoundingBox"===a.getAttribute("gradientUnits")&amp;&amp;f.scale(new x(i.width,i.height));const p=a.getAttribute("gradientTransform");null!=p&amp;&amp;f.transform(h(p)),"userSpaceOnUse"===a.getAttribute("gradientUnits")&amp;&amp;f.transform(new x(-i.x,-i.y)),f.paintMesh(u.data,l.width),c.putImageData(u,0,0);const y=document.createElementNS(t,"image");d(y,{width:i.width,height:i.height,x:i.x,y:i.y});let g=l.toDataURL();y.setAttributeNS(e,"xlink:href",g),r.parentNode.insertBefore(y,r),r.style.fill="none";const w=document.createElementNS(t,"use");w.setAttributeNS(e,"xlink:href","#"+o);const m="patchjs_clip"+n,M=document.createElementNS(t,"clipPath");M.setAttribute("id",m),M.appendChild(w),r.parentElement.insertBefore(M,r),y.setAttribute("clip-path","url(#"+m+")"),u=null,l=null,g=null}}if(a&amp;&amp;a[1]){const o=document.getElementById(a[1]);if(o&amp;&amp;"meshgradient"===o.nodeName){const i=parseFloat(r.style.strokeWidth.slice(0,-2))*(parseFloat(r.style.strokeMiterlimit)||parseFloat(r.getAttribute("stroke-miterlimit"))||1),a=r.getBBox(),l=Math.trunc(a.width+i),c=Math.trunc(a.height+i),u=Math.trunc(a.x-i/2),f=Math.trunc(a.y-i/2);let p=document.createElementNS(s,"canvas");d(p,{width:l,height:c});const y=p.getContext("2d");let g=y.createImageData(l,c);const w=new b(o);"objectBoundingBox"===o.getAttribute("gradientUnits")&amp;&amp;w.scale(new x(l,c));const m=o.getAttribute("gradientTransform");null!=m&amp;&amp;w.transform(h(m)),"userSpaceOnUse"===o.getAttribute("gradientUnits")&amp;&amp;w.transform(new x(-u,-f)),w.paintMesh(g.data,p.width),y.putImageData(g,0,0);const M=document.createElementNS(t,"image");d(M,{width:l,height:c,x:0,y:0});let S=p.toDataURL();M.setAttributeNS(e,"xlink:href",S);const k="pattern_clip"+n,A=document.createElementNS(t,"pattern");d(A,{id:k,patternUnits:"userSpaceOnUse",width:l,height:c,x:u,y:f}),A.appendChild(M),o.parentNode.appendChild(A),r.style.stroke="url(#"+k+")",g=null,p=null,S=null}}})}();
</script>
  <path style="fill:#000000;fill-opacity:1;stroke:#f0f84f;stroke-width:0.0494283;stroke-opacity:1" d="m 187.176,259.24201 c -5.87856,-2.99893 -10.62428,-10.45113 -10.62428,-16.68334 0,-4.52719 3.57417,-11.29541 7.57731,-14.34876 1.21145,-0.92402 4.08188,-2.14378 6.37871,-2.71059 3.82066,-0.94284 4.48599,-0.94045 7.81754,0.0281 5.22481,1.51889 8.85794,4.55162 11.47379,9.57768 1.99057,3.82464 2.1689,4.61937 1.90085,8.47093 -0.33929,4.87525 -1.97646,8.52471 -5.17519,11.53615 -5.35872,5.04495 -13.95732,6.88027 -19.34873,4.12987 z m 17.09697,-11.90613 c 0.80045,-1.27838 0.10979,-2.85241 -1.77261,-4.0398 -2.35151,-1.48329 -4.86295,2.36058 -3.005,4.59928 1.03988,1.25297 3.84871,0.92405 4.77761,-0.55948 z m -6.99654,-5.33802 c 1.52297,-1.30999 1.83468,-2.09678 1.83468,-4.6309 0,-2.62176 -0.30151,-3.32218 -2.13548,-4.96083 -2.44603,-2.18553 -5.58096,-2.51623 -8.67679,-0.91531 -2.21544,1.14564 -2.90607,3.18499 -2.38763,7.05029 0.48515,3.61709 2.27889,5.03488 6.36997,5.03488 2.39832,0 3.60306,-0.38061 4.99525,-1.57813 z" id="SvgjsPath1297" transform="matrix(8,0,0,8,-16,0)"></path>
</svg><style>@media (prefers-color-scheme: light) { :root { filter: none; } }
@media (prefers-color-scheme: dark) { :root { filter: invert(100%); } }
</style></svg>